<?xml version="1.0" encoding="UTF-8" standalone="no"?>
<svg
   width="2036.2085"
   height="279.22855"
   viewBox="0 0 538.7468 73.879221"
   version="1.1"
   id="svg8"
   xmlns="http://www.w3.org/2000/svg"
   xmlns:svg="http://www.w3.org/2000/svg"
   xmlns:rdf="http://www.w3.org/1999/02/22-rdf-syntax-ns#"
   xmlns:cc="http://creativecommons.org/ns#"
   xmlns:dc="http://purl.org/dc/elements/1.1/">
  <defs
     id="defs2" />
  <metadata
     id="metadata5">
    <rdf:RDF>
      <cc:Work
         rdf:about="">
        <dc:format>image/svg+xml</dc:format>
        <dc:type
           rdf:resource="http://purl.org/dc/dcmitype/StillImage" />
      </cc:Work>
    </rdf:RDF>
  </metadata>
  <g
     id="layer4"
     transform="translate(-2.2237023,-172.12785)">
    <g
       id="g85"
       transform="translate(-139.15976,280.93276)"
       style="display:inline">
      <path
         style="color:#000000;display:inline;fill:#11165b;stroke-linecap:round;stroke-linejoin:round;-inkscape-stroke:none;paint-order:stroke fill markers"
         d="m 237.01134,-106.21629 -22.24286,38.526964 12.73483,22.056852 h 44.4847 z"
         id="path104" />
      <path
         style="color:#000000;display:inline;fill:#fa6220;stroke-linecap:round;stroke-linejoin:round;-inkscape-stroke:none;paint-order:stroke fill markers"
         d="m 200.00528,-88.084759 -22.09374,38.269677 4.90741,8.499656 h 44.1875 z"
         id="path103" />
      <path
         style="color:#000000;display:inline;fill:#2833d0;stroke-linecap:round;stroke-linejoin:round;-inkscape-stroke:none;paint-order:stroke fill markers"
         d="m 162.99771,-70.471325 -19.02515,32.955889 h 38.05082 z"
         id="path102" />
      <path
         id="path96"
         style="color:#000000;display:inline;fill:#ffffff;stroke-linecap:round;stroke-linejoin:round;-inkscape-stroke:none;paint-order:stroke fill markers"
         d="m 237.01167,-108.80491 a 2.589736,2.589736 0 0 0 -2.24224,1.29295 l -21.49584,37.230801 -11.02569,-19.097542 a 2.589736,2.589736 0 0 0 -2.24224,-1.295012 2.589736,2.589736 0 0 0 -2.24379,1.295012 l -21.34443,36.97397 -11.1771,-19.361092 a 2.589736,2.589736 0 0 0 -2.24224,-1.294495 2.589736,2.589736 0 0 0 -2.24224,1.294495 l -19.02519,32.955094 a 2.589736,2.589736 0 0 0 2.24224,3.885035 h 38.05039 a 2.589736,2.589736 0 0 0 2.27996,-3.800802 h 42.70282 a 2.589736,2.589736 0 0 0 2.24379,-3.882967 l -0.25011,-0.433565 h 42.98859 a 2.589736,2.589736 0 0 0 2.24224,-3.884518 l -34.97668,-60.584414 a 2.589736,2.589736 0 0 0 -2.24224,-1.29295 z m -5.2e-4,2.58848 34.97668,60.583896 H 227.50476 L 214.76962,-67.69062 Z m -37.00601,18.131706 12.5181,21.682915 a 2.589736,2.589736 0 0 0 0.002,0.0072 l 12.73617,22.056535 1.74512,3.022555 h -44.18697 l -4.90771,-8.500773 z m -37.00756,17.613396 12.67107,21.948531 a 2.589736,2.589736 0 0 0 10e-4,0.0031 l 4.90668,8.49819 1.44694,2.506307 h -38.05091 z" />
    </g>
    <path
       style="font-size:105.833px;line-height:1.25;font-family:Anta;-inkscape-font-specification:Anta;fill:#2833d0;stroke-width:0"
       d="m 161.61505,172.32564 h 56.99892 v 10.85202 h -46.09523 v 51.72794 h 46.09523 v 10.9037 h -56.99892 z m 17.10484,29.81721 h 39.89408 v 10.85201 h -39.89408 z m 52.29639,-29.81721 h 10.90369 v 73.48366 h -10.90369 z m 23.306,31.00576 q 0,-4.59919 3.35895,-7.80311 3.35896,-3.25561 8.0615,-3.25561 h 22.32415 q 4.28913,0 7.75144,2.11873 3.51399,2.06705 5.58104,5.63271 2.11873,3.51399 2.11873,7.80312 v 1.49861 q 0,4.23745 -2.11873,7.75144 -2.06705,3.46231 -5.58104,5.58104 -3.46231,2.06705 -7.75144,2.06705 h -16.63976 v -10.85202 h 16.74311 q 1.86035,0 3.15226,-1.34358 1.34358,-1.34358 1.34358,-3.25561 v -1.44693 q 0,-1.9637 -1.34358,-3.30728 -1.29191,-1.34359 -3.15226,-1.34359 h -22.94426 v 27.49178 q 0,1.75699 1.18855,2.99722 1.18856,1.24023 2.89387,1.24023 h 30.43733 v 10.9037 h -30.43733 q -4.1341,0 -7.54473,-2.01538 -3.41063,-2.06705 -5.42601,-5.47768 -2.01537,-3.46231 -2.01537,-7.59642 z m 67.38585,-11.05872 14.31432,37.77535 14.21098,-37.77535 h 11.47213 L 341.29343,245.8093 H 330.59645 L 310.236,192.27268 Z m 46.19858,19.22357 q 0,-5.32265 2.58381,-9.66346 2.63549,-4.34081 7.02798,-6.92462 4.39248,-2.63549 9.71514,-2.63549 h 29.86888 v 53.53662 h -10.90369 v -42.63293 h -18.96519 q -3.46232,0 -5.94278,2.48046 -2.48046,2.42879 -2.48046,5.94278 v 14.77941 q 0,3.51398 2.48046,6.04612 2.48046,2.48046 5.94278,2.48046 h 12.76403 v 10.9037 h -12.76403 q -5.32266,0 -9.71514,-2.58382 -4.39249,-2.63549 -7.02798,-7.02797 -2.58381,-4.39248 -2.58381,-9.71514 z m 61.08136,-4.18578 q 0,-4.18577 2.06705,-7.59641 2.11873,-3.41063 5.58104,-5.42601 3.51398,-2.01537 7.75144,-2.01537 h 31.41917 v 10.90369 H 444.3876 q -1.86035,0 -3.20393,1.24023 -1.29191,1.18856 -1.29191,2.89387 v 1.29191 q 0,1.75699 1.29191,2.99723 1.34358,1.24023 3.20393,1.24023 h 19.53363 q 4.23745,0 7.69976,2.06705 3.51399,2.01537 5.58104,5.426 2.06705,3.41064 2.06705,7.59642 v 2.79051 q 0,4.13411 -2.06705,7.59642 -2.06705,3.41063 -5.58104,5.47768 -3.46231,2.01538 -7.69976,2.01538 h -32.50438 v -10.9037 h 32.50438 q 1.86034,0 3.15225,-1.24023 1.34358,-1.24023 1.34358,-2.99722 v -2.68717 q 0,-1.80867 -1.34358,-3.0489 -1.29191,-1.24023 -3.15225,-1.24023 H 444.3876 q -4.23746,0 -7.75144,-2.01537 -3.46231,-2.06705 -5.58104,-5.47769 -2.06705,-3.46231 -2.06705,-7.59641 z m 61.64978,4.28914 q 0,-5.32266 2.58381,-9.71514 2.63549,-4.39249 7.02798,-6.9763 4.39248,-2.63549 9.71514,-2.63549 h 11.67883 q 5.32266,0 9.71514,2.63549 4.39248,2.58381 6.9763,6.9763 2.63549,4.39248 2.63549,9.71514 v 14.88276 q 0,5.32266 -2.63549,9.71514 -2.58382,4.39248 -6.9763,7.02797 -4.39248,2.58382 -9.71514,2.58382 h -11.67883 q -5.32266,0 -9.71514,-2.58382 -4.39249,-2.63549 -7.02798,-7.02797 -2.58381,-4.39248 -2.58381,-9.71514 z m 10.90369,14.77941 q 0,3.51398 2.48046,6.04612 2.48047,2.48046 5.94278,2.48046 h 11.67883 q 3.51399,0 5.94277,-2.48046 2.48046,-2.53214 2.48046,-6.04612 v -14.67606 q 0,-3.51399 -2.48046,-5.99445 -2.42878,-2.53214 -5.94277,-2.53214 h -11.67883 q -3.46231,0 -5.94278,2.53214 -2.48046,2.48046 -2.48046,5.99445 z"
       id="text1"
       aria-label="Elevaso" />
  </g>
</svg>
