<?xml version="1.0" encoding="UTF-8" standalone="no"?>
<svg
   id="svg8"
   version="1.1"
   viewBox="0 0 135.46667 135.46667"
   height="512"
   width="512"
   xmlns="http://www.w3.org/2000/svg"
   xmlns:svg="http://www.w3.org/2000/svg"
   xmlns:rdf="http://www.w3.org/1999/02/22-rdf-syntax-ns#"
   xmlns:cc="http://creativecommons.org/ns#"
   xmlns:dc="http://purl.org/dc/elements/1.1/">
  <defs
     id="defs2" />
  <metadata
     id="metadata5">
    <rdf:RDF>
      <cc:Work
         rdf:about="">
        <dc:format>image/svg+xml</dc:format>
        <dc:type
           rdf:resource="http://purl.org/dc/dcmitype/StillImage" />
        <dc:title />
      </cc:Work>
    </rdf:RDF>
  </metadata>
  <g
     id="layer1">
    <g
       style="fill:#ffffff"
       transform="matrix(0.69594612,0,0,0.69594612,11.387797,13.229166)"
       id="g2997">
      <path
         id="rect841-3"
         style="opacity:0.978034;fill:#ffffff;fill-opacity:1;stroke:none;stroke-width:8.70587;stroke-linecap:round;stroke-linejoin:round;paint-order:stroke fill markers;stop-color:#000000"
         d="m 121.81241,104.51802 c -0.43919,0.002 -0.88935,0.038 -1.34767,0.10897 -26.12493,4.04369 -52.459286,4.31381 -79.044978,0.064 -4.884959,-0.78088 -8.817825,2.43592 -8.817825,7.38318 v 6.29595 H 20.878332 a 9.1778828,9.1778828 0 0 0 -9.213726,9.14224 9.2137253,9.2137253 0 0 0 9.213726,9.21372 h 11.723605 v 5.77857 c 0,4.94725 3.926606,9.78037 8.803328,10.61139 27.291777,4.65063 53.661021,4.68941 79.107965,0.11597 4.86888,-0.87506 8.78083,-5.78011 8.78083,-10.72736 v -5.77857 h 11.7526 a 9.1778828,9.1778828 0 0 0 9.21373,-9.14224 9.2137253,9.2137253 0 0 0 -9.21373,-9.21372 h -11.7526 v -6.29595 c 0,-4.48345 -3.23616,-7.57846 -7.48165,-7.55614 z m -74.749541,10.5454 a 3.491461,3.491461 0 0 1 3.397661,3.58311 v 23.85811 a 3.5831154,3.5831154 0 0 1 -3.583115,3.58312 3.491461,3.491461 0 0 1 -3.397661,-3.58312 v -23.85811 a 3.5831154,3.5831154 0 0 1 3.583115,-3.58311 z" />
      <path
         id="rect841-9"
         style="opacity:0.978034;fill:#ffffff;fill-opacity:1;stroke:none;stroke-width:8.70587;stroke-linecap:round;stroke-linejoin:round;paint-order:stroke fill markers;stop-color:#000000"
         d="m 121.81241,52.259088 c -0.43919,0.0023 -0.88935,0.03804 -1.34767,0.108972 -26.12493,4.043686 -52.459286,4.313808 -79.044979,0.06399 -4.884958,-0.780879 -8.817824,2.435927 -8.817824,7.383177 v 6.295945 H 20.878332 a 9.1778828,9.1778828 0 0 0 -9.213725,9.142243 9.2137253,9.2137253 0 0 0 9.213725,9.213725 h 11.723605 v 5.778572 c 0,4.947249 3.926605,9.780368 8.803328,10.611368 27.291777,4.65065 53.661021,4.68943 79.107965,0.11599 4.86888,-0.87507 8.78083,-5.780109 8.78083,-10.727358 V 84.46714 h 11.7526 a 9.1778828,9.1778828 0 0 0 9.21373,-9.142243 9.2137253,9.2137253 0 0 0 -9.21373,-9.213725 h -11.7526 v -6.295945 c 0,-4.483445 -3.23616,-7.578456 -7.48165,-7.556134 z M 47.062869,62.804483 a 3.491461,3.491461 0 0 1 3.397661,3.583116 v 23.858108 a 3.5831154,3.5831154 0 0 1 -3.583115,3.583116 3.491461,3.491461 0 0 1 -3.397661,-3.583116 V 66.387599 a 3.5831154,3.5831154 0 0 1 3.583115,-3.583116 z" />
      <path
         d="M 121.81242,1.199562e-4 C 121.37322,0.00242912 120.92307,0.03815193 120.46475,0.10909306 94.339805,4.1527781 68.005453,4.4229 41.419761,0.17307727 36.534803,-0.60780165 32.601937,2.6090044 32.601937,7.5562544 V 13.8522 H 20.878332 a 9.1778828,9.1778828 0 0 0 -9.213725,9.142243 9.2137252,9.2137252 0 0 0 9.213725,9.213725 h 11.723605 v 5.778572 c 0,4.947251 3.926605,9.780367 8.803328,10.611381 27.291775,4.650638 53.661017,4.689423 79.107965,0.115972 4.86888,-0.875058 8.78084,-5.780102 8.78084,-10.727353 v -5.778572 h 11.75259 a 9.1778828,9.1778828 0 0 0 9.21373,-9.142243 9.2137252,9.2137252 0 0 0 -9.21373,-9.213725 H 129.29407 V 7.5562544 c 0,-4.4834452 -3.23616,-7.5784562 -7.48165,-7.5561344438 z M 47.062868,10.545516 a 3.491461,3.491461 0 0 1 3.397661,3.583116 V 37.98674 A 3.5831153,3.5831153 0 0 1 46.877414,41.569856 3.491461,3.491461 0 0 1 43.479753,37.98674 V 14.128632 a 3.5831153,3.5831153 0 0 1 3.583115,-3.583116 z"
         style="opacity:0.978034;fill:#ffffff;fill-opacity:1;stroke:none;stroke-width:8.70587;stroke-linecap:round;stroke-linejoin:round;paint-order:stroke fill markers;stop-color:#000000"
         id="rect841" />
    </g>
  </g>
</svg>
